<svg width="17" height="19" viewBox="0 0 17 19" fill="none" xmlns="http://www.w3.org/2000/svg">
<path fill-rule="evenodd" clip-rule="evenodd" d="M1.88878 7.83851L7.94948 1.93174L8.7037 2.6668L2.643 8.57357L1.88878 7.83851Z" fill="#D9EAC8"/>
<path fill-rule="evenodd" clip-rule="evenodd" d="M3.89995 9.79861L9.96065 3.89183L10.7149 4.6269L4.65417 10.5337L3.89995 9.79861Z" fill="#D9EAC8"/>
<path fill-rule="evenodd" clip-rule="evenodd" d="M8.17391 13.964L14.2346 8.05724L14.9888 8.7923L8.92813 14.6991L8.17391 13.964Z" fill="#D9EAC8"/>
<path fill-rule="evenodd" clip-rule="evenodd" d="M10.1851 15.9241L16.2458 10.0173L17 10.7524L10.9393 16.6592L10.1851 15.9241Z" fill="#D9EAC8"/>
<path fill-rule="evenodd" clip-rule="evenodd" d="M10.1851 15.9241C8.09306 17.963 4.70883 17.9704 2.62611 15.9406C0.543387 13.9108 0.550979 10.6125 2.643 8.57357L1.88878 7.83851C-0.621645 10.2852 -0.630745 14.2432 1.86852 16.679C4.36779 19.1147 8.42888 19.1058 10.9393 16.6592L10.1851 15.9241Z" fill="#D9EAC8"/>
<path fill-rule="evenodd" clip-rule="evenodd" d="M14.2346 8.05724L14.9888 8.7923C16.9414 6.88934 16.9484 3.81089 15.0045 1.91639C13.0607 0.0218818 9.90203 0.0287763 7.94948 1.93174L8.7037 2.6668C10.2378 1.17162 12.7196 1.16619 14.247 2.65473C15.7743 4.14327 15.7688 6.56206 14.2346 8.05724Z" fill="#D9EAC8"/>
<path fill-rule="evenodd" clip-rule="evenodd" d="M3.89995 9.79861C2.50527 11.1579 2.50044 13.357 3.88893 14.7102C5.27741 16.0635 7.53345 16.0583 8.92813 14.6991L8.17391 13.964C7.19763 14.9155 5.61845 14.9192 4.64651 13.9719C3.67458 13.0246 3.6779 11.4852 4.65417 10.5337L3.89995 9.79861Z" fill="#D9EAC8"/>
</svg>
